<svg width="32" height="20" viewBox="0 0 32 20" fill="none" xmlns="http://www.w3.org/2000/svg">
<path fill-rule="evenodd" clip-rule="evenodd" d="M22.3875 0.338322C22.958 0.836437 23.0167 1.70278 22.5186 2.27335L8.15141 18.7304C7.89097 19.0286 7.51429 19.1998 7.1183 19.1998C6.7223 19.1998 6.34563 19.0286 6.08519 18.7304L0.338322 12.1476C-0.159793 11.5769 -0.10106 10.7105 0.46952 10.2124C1.04008 9.71435 1.90643 9.77304 2.40454 10.3437L7.1183 15.7431L20.4523 0.46952C20.9504 -0.10106 21.8168 -0.159793 22.3875 0.338322Z" fill="#AC4AFF"/>
<path fill-rule="evenodd" clip-rule="evenodd" d="M31.5743 0.492834C32.1227 1.0152 32.1439 1.88326 31.6215 2.43173L15.9477 18.8886C15.6707 19.1796 15.2801 19.3343 14.8791 19.3121C14.4781 19.29 14.107 19.0933 13.8636 18.7736L13.0804 17.7451C12.6216 17.1426 12.7381 16.2821 13.3406 15.8233C13.8583 15.429 14.5663 15.4594 15.0465 15.8578L29.6353 0.540102C30.1578 -0.00835285 31.0258 -0.0295271 31.5743 0.492834Z" fill="#AC4AFF"/>
</svg>
