<svg width="31" height="30" viewBox="0 0 31 30" fill="none" xmlns="http://www.w3.org/2000/svg">
<path d="M20.9072 15.9409H27.458V22.6597H20.9072V15.9409Z" stroke="white" stroke-width="1.33333" stroke-linecap="round" stroke-linejoin="round"/>
<path d="M27.4576 15.9408L29.5205 13.8779" stroke="white" stroke-width="1.33333" stroke-linecap="round" stroke-linejoin="round"/>
<path d="M20.9072 15.9408L22.9701 13.8779" stroke="white" stroke-width="1.33333" stroke-linecap="round" stroke-linejoin="round"/>
<path d="M27.4576 22.6603L29.5205 20.5974" stroke="white" stroke-width="1.33333" stroke-linecap="round" stroke-linejoin="round"/>
<path d="M22.9701 13.8782H29.5209" stroke="white" stroke-width="1.33333" stroke-linecap="round" stroke-linejoin="round"/>
<path d="M29.5205 13.8782V20.597" stroke="white" stroke-width="1.33333" stroke-linecap="round" stroke-linejoin="round"/>
<path d="M20.9072 22.6602C19.225 23.6313 15.9979 25.051 14.2543 24.2011" stroke="white" stroke-width="1.33333" stroke-linecap="round" stroke-linejoin="round"/>
<path d="M11.682 8.17232C11.682 18.85 27.2177 13.5708 23.8204 7.68677" stroke="white" stroke-width="1.33333" stroke-linecap="round" stroke-linejoin="round"/>
<path d="M12.4521 11.6736C9.092 13.6135 7.29179 20.2607 11.4978 22.6888" stroke="white" stroke-width="1.33333" stroke-linecap="round" stroke-linejoin="round"/>
<path d="M11.6821 8.17233C13.3664 9.14474 20.066 8.69287 23.8205 7.68678C24.7629 7.43426 27.2629 6.62288 26.5736 5.9336C25.8843 5.24432 24.7412 4.74227 23.2981 4.50586C21.2877 -2.99728 8.76893 3.12576 11.6821 8.17233Z" stroke="white" stroke-width="1.33333" stroke-linecap="round" stroke-linejoin="round"/>
<path d="M23.2977 4.50635C21.9225 5.88151 14.4993 7.41771 11.6812 8.17282" stroke="white" stroke-width="1.33333" stroke-linecap="round" stroke-linejoin="round"/>
<path d="M22.1255 12.8411C19.8442 13.4494 18.0341 13.2571 16.8721 11.9629" stroke="white" stroke-width="1.33333" stroke-linecap="round" stroke-linejoin="round"/>
<path d="M17.8171 16.9551L21.796 19.8056L23.8746 18.8554" stroke="white" stroke-width="1.33333" stroke-linecap="round" stroke-linejoin="round"/>
<path d="M18.801 23.6882L21.538 28.4289L23.8617 27.0872" stroke="white" stroke-width="1.33333" stroke-linecap="round" stroke-linejoin="round"/>
<path d="M14.3953 20.6311L11.6183 25.441L7.81861 24.4229L6.28882 27.0726" stroke="white" stroke-width="1.33333" stroke-linecap="round" stroke-linejoin="round"/>
<path d="M2.94214 6.22998H7.79746" stroke="white" stroke-width="1.33333" stroke-linecap="round" stroke-linejoin="round"/>
<path d="M1.97107 9.14307H6.82639" stroke="white" stroke-width="1.33333" stroke-linecap="round" stroke-linejoin="round"/>
<path d="M1 17.8833H5.85533" stroke="white" stroke-width="1.33333" stroke-linecap="round" stroke-linejoin="round"/>
<path d="M1.97107 20.7964H6.82639" stroke="white" stroke-width="1.33333" stroke-linecap="round" stroke-linejoin="round"/>
<path d="M21.9386 14.9096L20.3894 13.7412" stroke="white" stroke-width="1.33333" stroke-linecap="round" stroke-linejoin="round"/>
<path d="M22.2483 10.5847C22.5676 10.5847 22.8264 10.3259 22.8264 10.0066C22.8264 9.6873 22.5676 9.42847 22.2483 9.42847C21.929 9.42847 21.6702 9.6873 21.6702 10.0066C21.6702 10.3259 21.929 10.5847 22.2483 10.5847Z" fill="white"/>
<path d="M18.5529 11.0049C18.8721 11.0049 19.131 10.746 19.131 10.4268C19.131 10.1075 18.8721 9.84863 18.5529 9.84863C18.2336 9.84863 17.9747 10.1075 17.9747 10.4268C17.9747 10.746 18.2336 11.0049 18.5529 11.0049Z" fill="white"/>
</svg>
