<svg width="322" height="119" viewBox="0 0 322 119" fill="none" xmlns="http://www.w3.org/2000/svg">
<path d="M322 161C322 127.115 311.309 94.0947 291.45 66.6398C271.59 39.185 243.575 18.6957 211.393 8.08983C179.211 -2.51609 144.503 -2.69798 112.212 7.57006C79.9208 17.8381 51.6923 38.0326 31.5463 65.2778C11.4003 92.523 0.363984 125.43 0.00884311 159.313C-0.346297 193.195 9.99787 226.326 29.5684 253.988C49.1389 281.649 76.9379 302.431 109.007 313.374C141.076 324.316 175.78 324.862 208.177 314.933L190.608 257.609C170.276 263.84 148.496 263.498 128.369 256.63C108.242 249.762 90.7958 236.72 78.5133 219.359C66.2308 201.999 59.7388 181.206 59.9617 159.941C60.1846 138.676 67.111 118.024 79.7547 100.925C92.3983 83.8254 110.115 71.1514 130.381 64.7071C150.647 58.2629 172.429 58.377 192.627 65.0333C212.824 71.6896 230.407 84.5487 242.871 101.779C255.334 119.01 262.044 139.734 262.044 161H322Z" fill="url(#paint0_linear_332_670)"/>
<defs>
<linearGradient id="paint0_linear_332_670" x1="272.5" y1="66.5" x2="51.5" y2="273.5" gradientUnits="userSpaceOnUse">
<stop offset="0.115029" stop-color="#FDA545"/>
<stop offset="1" stop-color="#61307F"/>
</linearGradient>
</defs>
</svg>
