<svg width="23" height="25" viewBox="0 0 23 25" fill="none" xmlns="http://www.w3.org/2000/svg">
<path fill-rule="evenodd" clip-rule="evenodd" d="M7.67866 10.5406H3.48137C2.8655 10.5355 2.27282 10.7753 1.83374 11.2072C1.39463 11.6391 1.14509 12.2277 1.14001 12.8435V21.5592C1.15141 22.8412 2.19946 23.8714 3.48137 23.8606H7.67866C8.29448 23.8658 8.88722 23.626 9.32634 23.1942C9.76545 22.7623 10.015 22.1737 10.02 21.5577V12.8435C10.015 12.2277 9.76545 11.6391 9.32634 11.2072C8.88722 10.7753 8.29448 10.5355 7.67866 10.5406Z" stroke="white" stroke-width="2" stroke-linecap="round" stroke-linejoin="round"/>
<path fill-rule="evenodd" clip-rule="evenodd" d="M7.67866 1.66081H3.48137C2.22524 1.62597 1.17789 2.6144 1.14001 3.87045V5.37117C1.17789 6.62723 2.22524 7.61566 3.48137 7.58081H7.67866C8.93473 7.61566 9.98213 6.62723 10.02 5.37117V3.87045C9.98213 2.6144 8.93473 1.62597 7.67866 1.66081Z" stroke="white" stroke-width="2" stroke-linecap="round" stroke-linejoin="round"/>
<path fill-rule="evenodd" clip-rule="evenodd" d="M15.3213 14.981H19.5171C20.1333 14.9865 20.7263 14.7469 21.1657 14.315C21.6051 13.883 21.8549 13.2943 21.86 12.6781V3.96385C21.8549 3.34799 21.6054 2.75937 21.1663 2.32749C20.7272 1.89561 20.1344 1.65585 19.5186 1.66097H15.3213C14.7055 1.65585 14.1128 1.89561 13.6737 2.32749C13.2345 2.75937 12.985 3.34799 12.98 3.96385V12.6781C12.985 13.294 13.2345 13.8826 13.6737 14.3144C14.1128 14.7463 14.7055 14.9861 15.3213 14.981Z" stroke="white" stroke-width="2" stroke-linecap="round" stroke-linejoin="round"/>
<path fill-rule="evenodd" clip-rule="evenodd" d="M15.3213 23.8608H19.5171C20.7738 23.8965 21.8221 22.9079 21.86 21.6512V20.1505C21.8221 18.8944 20.7747 17.9061 19.5186 17.9408H15.3213C14.0653 17.9061 13.0179 18.8944 12.98 20.1505V21.6497C13.017 22.9064 14.0647 23.8956 15.3213 23.8608Z" stroke="white" stroke-width="2" stroke-linecap="round" stroke-linejoin="round"/>
</svg>
