<svg width="30" height="26" viewBox="0 0 30 26" fill="none" xmlns="http://www.w3.org/2000/svg">
<path d="M0 3.71429C0 2.7292 0.395088 1.78445 1.09835 1.08789C1.80161 0.391325 2.75544 0 3.75 0H29.0625C29.3111 0 29.5496 0.0978313 29.7254 0.271972C29.9012 0.446113 30 0.682299 30 0.928571C30 1.17484 29.9012 1.41103 29.7254 1.58517C29.5496 1.75931 29.3111 1.85714 29.0625 1.85714H28.125V5.57143C28.6223 5.57143 29.0992 5.76709 29.4508 6.11537C29.8025 6.46366 30 6.93603 30 7.42857V23.2143C30 23.9531 29.7037 24.6617 29.1762 25.1841C28.6488 25.7065 27.9334 26 27.1875 26H4.6875C3.4443 26 2.25201 25.5108 1.37294 24.6401C0.49386 23.7694 0 22.5885 0 21.3571L0 3.71429ZM1.875 6.93086V21.3571C1.875 22.096 2.17132 22.8045 2.69876 23.3269C3.22621 23.8494 3.94158 24.1429 4.6875 24.1429H27.1875C27.4361 24.1429 27.6746 24.045 27.8504 23.8709C28.0262 23.6967 28.125 23.4606 28.125 23.2143V7.42857H3.75C3.09173 7.42854 2.44506 7.25689 1.875 6.93086ZM1.875 3.71429C1.875 4.20683 2.07254 4.6792 2.42417 5.02748C2.77581 5.37577 3.25272 5.57143 3.75 5.57143H26.25V1.85714H3.75C3.25272 1.85714 2.77581 2.05281 2.42417 2.40109C2.07254 2.74937 1.875 3.22174 1.875 3.71429Z" fill="#AC4AFF"/>
<path d="M15.2228 21.2131C14.1291 21.2131 13.1845 20.9858 12.389 20.5312C11.5983 20.072 10.9899 19.4233 10.5637 18.5852C10.1376 17.7424 9.92454 16.7505 9.92454 15.6094C9.92454 14.4872 10.1376 13.5024 10.5637 12.6548C10.9946 11.8026 11.5959 11.1397 12.3677 10.6662C13.1395 10.188 14.0462 9.94886 15.0879 9.94886C15.7602 9.94886 16.3947 10.0578 16.9913 10.2756C17.5926 10.4886 18.1229 10.8201 18.5822 11.2699C19.0462 11.7197 19.4108 12.2926 19.676 12.9886C19.9411 13.6799 20.0737 14.5038 20.0737 15.4602V16.2486H11.1319V14.5156H17.6092C17.6045 14.0232 17.4979 13.5852 17.2896 13.2017C17.0813 12.8134 16.7901 12.508 16.416 12.2855C16.0467 12.063 15.6158 11.9517 15.1234 11.9517C14.5978 11.9517 14.1362 12.0795 13.7385 12.3352C13.3407 12.5862 13.0306 12.9176 12.8081 13.3295C12.5903 13.7367 12.479 14.1842 12.4743 14.6719V16.1847C12.4743 16.8191 12.5903 17.3636 12.8223 17.8182C13.0543 18.268 13.3786 18.6136 13.7953 18.8551C14.2119 19.0919 14.6996 19.2102 15.2583 19.2102C15.6324 19.2102 15.9709 19.1581 16.274 19.054C16.577 18.9451 16.8398 18.7865 17.0623 18.5781C17.2849 18.3698 17.4529 18.1117 17.5666 17.804L19.9672 18.0739C19.8156 18.7083 19.5268 19.2623 19.1007 19.7358C18.6793 20.2045 18.1395 20.5691 17.4814 20.8295C16.8232 21.0852 16.0704 21.2131 15.2228 21.2131Z" fill="#ED6839"/>
</svg>
