<svg width="23" height="23" viewBox="0 0 23 23" fill="none" xmlns="http://www.w3.org/2000/svg">
<path fill-rule="evenodd" clip-rule="evenodd" d="M17.4142 4.9082H14.1367C13.7729 4.9082 13.4775 5.20352 13.4775 5.56738C13.4775 5.93191 13.7729 6.22656 14.1367 6.22656H15.869L12.7063 9.38997L13.6384 10.3221L16.7879 7.17248L16.7734 8.86328C16.7734 9.22781 17.0688 9.52246 17.4326 9.52246C17.7965 9.52246 18.0918 9.22781 18.0918 8.86328V5.56738C18.0918 5.37227 18.0107 5.21474 17.8835 5.10663C17.7635 4.98403 17.5981 4.9082 17.4142 4.9082ZM20.7285 19.4102C20.7285 20.1353 20.1379 20.7285 19.4102 20.7285H3.58984C2.86211 20.7285 2.27148 20.1353 2.27148 19.4102V3.58984C2.27148 2.86211 2.86211 2.27148 3.58984 2.27148H19.4102C20.1379 2.27148 20.7285 2.86211 20.7285 3.58984V19.4102ZM19.4102 0.953125H3.58984C2.13372 0.953125 0.953125 2.13372 0.953125 3.58984V19.4102C0.953125 20.8669 2.13372 22.0469 3.58984 22.0469H19.4102C20.8663 22.0469 22.0469 20.8669 22.0469 19.4102V3.58984C22.0469 2.13372 20.8663 0.953125 19.4102 0.953125ZM9.36162 12.6799L6.21206 15.8308L6.22656 14.1367C6.22656 13.7742 5.93125 13.4775 5.56738 13.4775C5.20352 13.4775 4.9082 13.7742 4.9082 14.1367V17.4326C4.9082 17.6304 4.98928 17.7886 5.1165 17.8941C5.23581 18.0127 5.40193 18.0918 5.58584 18.0918H8.86328C9.22715 18.0918 9.52246 17.7952 9.52246 17.4326C9.52246 17.0701 9.22715 16.7734 8.86328 16.7734H7.13095L10.2937 13.6094L9.36162 12.6799ZM17.4326 13.4775C17.0688 13.4775 16.7734 13.7742 16.7734 14.1367L16.7879 15.8308L13.6384 12.6799L12.7063 13.6094L15.869 16.7734H14.1367C13.7729 16.7734 13.4775 17.0701 13.4775 17.4326C13.4775 17.7952 13.7729 18.0918 14.1367 18.0918H17.4142C17.5981 18.0918 17.7642 18.0127 17.8835 17.8941C18.0107 17.7886 18.0918 17.6304 18.0918 17.4326V14.1367C18.0918 13.7742 17.7965 13.4775 17.4326 13.4775ZM8.86328 6.22656C9.22715 6.22656 9.52246 5.93191 9.52246 5.56738C9.52246 5.20352 9.22715 4.9082 8.86328 4.9082H5.58584C5.40193 4.9082 5.23647 4.98403 5.1165 5.10663C4.98928 5.21474 4.9082 5.37227 4.9082 5.56738V8.86328C4.9082 9.22781 5.20352 9.52246 5.56738 9.52246C5.93125 9.52246 6.22656 9.22781 6.22656 8.86328L6.21206 7.17248L9.36162 10.3221L10.2937 9.38997L7.13095 6.22656H8.86328Z" fill="#AC4AFF"/>
</svg>
