<svg width="29" height="29" viewBox="0 0 29 29" fill="none" xmlns="http://www.w3.org/2000/svg">
<path d="M18.2464 1.57698C17.7586 1.07771 17.1758 0.680995 16.5325 0.410139C15.8891 0.139283 15.1981 -0.000244141 14.5 -0.000244141C13.8019 -0.000244141 13.1109 0.139283 12.4676 0.410139C11.8242 0.680995 11.2414 1.07771 10.7536 1.57698L9.62619 2.73336L8.01307 2.71342C7.3148 2.70516 6.62193 2.8366 5.97521 3.10001C5.32848 3.36342 4.74095 3.75348 4.24716 4.24727C3.75338 4.74105 3.36331 5.32858 3.0999 5.97531C2.83649 6.62204 2.70505 7.31491 2.71332 8.01317L2.73144 9.6263L1.57869 10.7537C1.07942 11.2415 0.682703 11.8243 0.411848 12.4677C0.140992 13.111 0.00146484 13.802 0.00146484 14.5001C0.00146484 15.1982 0.140992 15.8892 0.411848 16.5326C0.682703 17.1759 1.07942 17.7587 1.57869 18.2465L2.73326 19.3739L2.71332 20.987C2.70505 21.6853 2.83649 22.3782 3.0999 23.0249C3.36331 23.6716 3.75338 24.2592 4.24716 24.753C4.74095 25.2467 5.32848 25.6368 5.97521 25.9002C6.62193 26.1636 7.3148 26.2951 8.01307 26.2868L9.62619 26.2687L10.7536 27.4214C11.2414 27.9207 11.8242 28.3174 12.4676 28.5883C13.1109 28.8591 13.8019 28.9987 14.5 28.9987C15.1981 28.9987 15.8891 28.8591 16.5325 28.5883C17.1758 28.3174 17.7586 27.9207 18.2464 27.4214L19.3738 26.2669L20.9869 26.2868C21.6852 26.2951 22.3781 26.1636 23.0248 25.9002C23.6715 25.6368 24.2591 25.2467 24.7528 24.753C25.2466 24.2592 25.6367 23.6716 25.9001 23.0249C26.1635 22.3782 26.295 21.6853 26.2867 20.987L26.2686 19.3739L27.4213 18.2465C27.9206 17.7587 28.3173 17.1759 28.5882 16.5326C28.859 15.8892 28.9985 15.1982 28.9985 14.5001C28.9985 13.802 28.859 13.111 28.5882 12.4677C28.3173 11.8243 27.9206 11.2415 27.4213 10.7537L26.2668 9.6263L26.2867 8.01317C26.295 7.31491 26.1635 6.62204 25.9001 5.97531C25.6367 5.32858 25.2466 4.74105 24.7528 4.24727C24.2591 3.75348 23.6715 3.36342 23.0248 3.10001C22.3781 2.8366 21.6852 2.70516 20.9869 2.71342L19.3738 2.73155L18.2464 1.57698ZM15.4063 10.8751V13.5939H18.125C18.3654 13.5939 18.5959 13.6893 18.7658 13.8593C18.9358 14.0293 19.0313 14.2598 19.0313 14.5001C19.0313 14.7405 18.9358 14.971 18.7658 15.1409C18.5959 15.3109 18.3654 15.4064 18.125 15.4064H15.4063V18.1251C15.4063 18.3655 15.3108 18.596 15.1408 18.7659C14.9709 18.9359 14.7404 19.0314 14.5 19.0314C14.2597 19.0314 14.0291 18.9359 13.8592 18.7659C13.6892 18.596 13.5938 18.3655 13.5938 18.1251V15.4064H10.875C10.6347 15.4064 10.4041 15.3109 10.2342 15.1409C10.0642 14.971 9.96876 14.7405 9.96876 14.5001C9.96876 14.2598 10.0642 14.0293 10.2342 13.8593C10.4041 13.6893 10.6347 13.5939 10.875 13.5939H13.5938V10.8751C13.5938 10.6348 13.6892 10.4043 13.8592 10.2343C14.0291 10.0643 14.2597 9.96886 14.5 9.96886C14.7404 9.96886 14.9709 10.0643 15.1408 10.2343C15.3108 10.4043 15.4063 10.6348 15.4063 10.8751Z" fill="white"/>
</svg>
