<svg width="25" height="13" viewBox="0 0 25 13" fill="none" xmlns="http://www.w3.org/2000/svg">
<path fill-rule="evenodd" clip-rule="evenodd" d="M24.4713 0.0707346C24.9139 0.260466 25.1189 0.77315 24.9293 1.21584L24.1277 0.872312C24.9293 1.21584 24.9294 1.21565 24.9293 1.21584L24.9285 1.2178L24.9272 1.22069L24.9235 1.22925L24.911 1.25724C24.9006 1.28066 24.8857 1.31346 24.8664 1.35496C24.8277 1.43793 24.7712 1.55574 24.6962 1.70273C24.5463 1.9965 24.3226 2.40798 24.0213 2.89145C23.5264 3.68568 22.8166 4.68347 21.8742 5.67486L23.0002 6.80078C23.3407 7.14136 23.3407 7.69357 23.0002 8.03415C22.6597 8.37473 22.1075 8.37473 21.7669 8.03415L20.6034 6.87067C19.8363 7.51334 18.9567 8.11647 17.9592 8.61205L19.0448 10.2804C19.3075 10.684 19.1932 11.2242 18.7894 11.4869C18.3857 11.7496 17.8455 11.6353 17.5828 11.2316L16.3163 9.28519C15.4102 9.58112 14.429 9.78228 13.3719 9.85437V11.9188C13.3719 12.4004 12.9814 12.7909 12.4998 12.7909C12.0182 12.7909 11.6277 12.4004 11.6277 11.9188V9.85437C10.6033 9.78449 9.65006 9.59344 8.76719 9.31228L7.51828 11.2317C7.25559 11.6354 6.71539 11.7497 6.31168 11.487C5.90798 11.2244 5.79366 10.6841 6.05633 10.2804L7.11728 8.64996C6.11218 8.15903 5.22534 7.55857 4.45163 6.91671L3.33422 8.03415C2.99365 8.37473 2.44148 8.37473 2.1009 8.03415C1.76033 7.69357 1.76033 7.14148 2.1009 6.8009L3.17504 5.72672C2.21626 4.72707 1.49447 3.71713 0.99159 2.91262C0.685859 2.42351 0.458837 2.00678 0.306837 1.70916C0.230791 1.56025 0.173373 1.44086 0.134152 1.35677C0.114536 1.31473 0.0994547 1.28147 0.0888501 1.25775L0.0763035 1.2294L0.0725361 1.22074L0.0712688 1.21782L0.0707919 1.21672C0.0707105 1.21651 0.0704199 1.21584 0.871997 0.872312L0.0707919 1.21672C-0.118928 0.77401 0.0857687 0.260466 0.528464 0.0707346C0.970799 -0.118834 1.48301 0.0857463 1.67311 0.527686C1.67304 0.527535 1.67318 0.527837 1.67311 0.527686L1.67421 0.530232L1.68128 0.546185C1.68813 0.561523 1.6993 0.586162 1.71478 0.619383C1.7458 0.685848 1.79413 0.786557 1.86018 0.915893C1.99238 1.17475 2.1949 1.54704 2.47059 1.98812C3.02363 2.87286 3.86227 4.02008 5.0065 5.08347C6.01336 6.01916 7.24716 6.88113 8.72281 7.4488C9.83267 7.87578 11.0876 8.13973 12.4998 8.13973C13.9437 8.13973 15.2232 7.86392 16.3515 7.41973C17.8183 6.84241 19.0437 5.97486 20.0425 5.03742C21.1699 3.97924 21.9962 2.84342 22.5411 1.96906C22.8127 1.53313 23.0121 1.16565 23.1423 0.9103C23.2074 0.782731 23.255 0.68344 23.2856 0.617952C23.3008 0.585208 23.3119 0.560953 23.3186 0.545848L23.3255 0.530174L23.3262 0.528779C23.326 0.528895 23.3262 0.528674 23.3262 0.528779M24.4713 0.0707346C24.0286 -0.118939 23.5159 0.0863159 23.3262 0.528779L24.4713 0.0707346ZM1.67311 0.527686C1.67304 0.527535 1.67318 0.527837 1.67311 0.527686V0.527686Z" fill="#AC4AFF"/>
</svg>
