<svg width="23" height="23" viewBox="0 0 23 23" fill="none" xmlns="http://www.w3.org/2000/svg">
<path d="M23 11.5C23 8.77695 22.0337 6.14224 20.2732 4.06486C18.5126 1.98749 16.0721 0.602233 13.3859 0.155684C10.6997 -0.290865 7.94218 0.230264 5.60422 1.62631C3.26626 3.02235 1.49953 5.20273 0.618521 7.77933C-0.262487 10.3559 -0.20061 13.1615 0.793137 15.6968C1.78688 18.232 3.64802 20.3324 6.04526 21.624C8.4425 22.9156 11.2203 23.3147 13.8842 22.7501C16.5481 22.1856 18.9252 20.6941 20.5924 18.5411L15.4628 14.5688C14.7362 15.5071 13.7001 16.1572 12.5391 16.4032C11.3781 16.6493 10.1674 16.4754 9.12261 15.9124C8.07781 15.3495 7.26665 14.4341 6.83354 13.3291C6.40042 12.2242 6.37346 11.0014 6.75743 9.87839C7.14141 8.75541 7.91142 7.80512 8.93039 7.19667C9.94937 6.58822 11.1512 6.36109 12.3219 6.55571C13.4927 6.75033 14.5564 7.35408 15.3237 8.25948C16.091 9.16488 16.5121 10.3132 16.5121 11.5H23Z" fill="white"/>
</svg>
