<svg width="26" height="24" viewBox="0 0 26 24" fill="none" xmlns="http://www.w3.org/2000/svg">
<path fill-rule="evenodd" clip-rule="evenodd" d="M7 4C7 3.44772 7.44772 3 8 3H24C24.5523 3 25 3.44772 25 4C25 4.55228 24.5523 5 24 5H8C7.44772 5 7 4.55228 7 4ZM1 12C1 11.4477 1.44772 11 2 11H24C24.5523 11 25 11.4477 25 12C25 12.5523 24.5523 13 24 13H2C1.44772 13 1 12.5523 1 12ZM15 19C14.4477 19 14 19.4477 14 20C14 20.5523 14.4477 21 15 21H24C24.5523 21 25 20.5523 25 20C25 19.4477 24.5523 19 24 19H15Z" fill="#D8B0EE"/>
</svg>
