<svg width="19" height="21" viewBox="0 0 19 21" fill="none" xmlns="http://www.w3.org/2000/svg">
<path d="M15.0938 7.21875C15.0938 4.40442 13.1237 2.05406 10.4885 1.46081C10.4948 1.41225 10.5 1.36303 10.5 1.3125C10.5 0.587672 9.91233 0 9.1875 0C8.46267 0 7.875 0.587672 7.875 1.3125C7.875 1.36303 7.88025 1.41225 7.88648 1.46081C5.25131 2.05406 3.28125 4.40442 3.28125 7.21875V11.1562H15.0938V7.21875ZM9.83817 1.35023C9.62456 1.32661 9.40767 1.3125 9.1875 1.3125C8.96733 1.3125 8.75044 1.32661 8.53683 1.35023C8.53584 1.33711 8.53125 1.32562 8.53125 1.3125C8.53125 0.95025 8.82525 0.65625 9.1875 0.65625C9.54975 0.65625 9.84375 0.95025 9.84375 1.3125C9.84375 1.32562 9.83916 1.33711 9.83817 1.35023Z" fill="#AC4AFF"/>
<path d="M15.0938 11.8125H3.28125V13.125H15.0938V11.8125Z" fill="#AC4AFF"/>
<path d="M17.0625 15.75C15.9754 15.75 15.0938 14.8683 15.0938 13.7812H3.28125C3.28125 14.8683 2.39958 15.75 1.3125 15.75C0.587672 15.75 0 16.3377 0 17.0625C0 17.7873 0.587672 18.375 1.3125 18.375H6.5625C6.5625 19.8247 7.73784 21 9.1875 21C10.6372 21 11.8125 19.8247 11.8125 18.375H17.0625C17.7873 18.375 18.375 17.7873 18.375 17.0625C18.375 16.3377 17.7873 15.75 17.0625 15.75ZM9.1875 20.3438C8.10042 20.3438 7.21875 19.4621 7.21875 18.375H11.1562C11.1562 19.4621 10.2746 20.3438 9.1875 20.3438Z" fill="#AC4AFF"/>
</svg>
