<svg width="24" height="24" viewBox="0 0 24 24" fill="none" xmlns="http://www.w3.org/2000/svg">
<path d="M15.5 11.875C15.5 13.8771 13.8771 15.5 11.875 15.5C9.87291 15.5 8.25 13.8771 8.25 11.875C8.25 9.87291 9.87291 8.25 11.875 8.25C13.8771 8.25 15.5 9.87291 15.5 11.875Z" stroke="black" stroke-width="2" stroke-linecap="round" stroke-linejoin="round"/>
<path d="M12.9681 1.07256C12.7194 1 12.438 1 11.875 1C11.312 1 11.0306 1 10.7819 1.07256C10.418 1.17876 10.0965 1.39643 9.86264 1.69492C9.7029 1.89885 9.59838 2.16019 9.38935 2.68287C9.08881 3.43421 8.25475 3.82111 7.48702 3.56529L6.79733 3.33548C6.30809 3.1724 6.06346 3.09085 5.82362 3.07688C5.4713 3.05635 5.12066 3.13914 4.81472 3.31505C4.60645 3.4348 4.42413 3.61714 4.05946 3.9818C3.67189 4.36938 3.4781 4.56316 3.35499 4.78437C3.17412 5.10935 3.09761 5.48212 3.13584 5.85207C3.16185 6.10388 3.26363 6.35834 3.4672 6.86726C3.78599 7.66424 3.47931 8.57478 2.74329 9.01648L2.40796 9.21772C1.89454 9.52576 1.63783 9.67982 1.45136 9.89188C1.28635 10.0795 1.16193 10.2993 1.0859 10.5374C1 10.8063 1 11.1087 1 11.7134C1 12.4295 1 12.7874 1.11433 13.094C1.21536 13.3648 1.37968 13.6074 1.59358 13.8018C1.83566 14.0217 2.16477 14.1534 2.82296 14.4167C3.49562 14.6857 3.84195 15.4325 3.61285 16.1198L3.35288 16.8997C3.17281 17.4399 3.08277 17.71 3.07459 17.9754C3.06474 18.2945 3.13934 18.6105 3.29084 18.8914C3.41685 19.1252 3.61819 19.3266 4.02083 19.7292C4.42349 20.1318 4.62482 20.3331 4.85851 20.4591C5.13951 20.6106 5.45552 20.6853 5.77461 20.6754C6.03998 20.6672 6.31009 20.5772 6.85032 20.3971L7.48708 20.1848C8.25475 19.929 9.08883 20.3158 9.38935 21.0672C9.59838 21.5898 9.7029 21.8511 9.86264 22.0551C10.0965 22.3535 10.418 22.5713 10.7819 22.6775C11.0306 22.75 11.312 22.75 11.875 22.75C12.438 22.75 12.7194 22.75 12.9681 22.6775C13.332 22.5713 13.6535 22.3535 13.8874 22.0551C14.0471 21.8511 14.1516 21.5898 14.3607 21.0672C14.6612 20.3158 15.4953 19.929 16.2628 20.1851L16.8991 20.3973C17.4394 20.5773 17.7096 20.6673 17.9749 20.6755C18.294 20.6853 18.61 20.6108 18.8909 20.4592C19.1246 20.3332 19.3261 20.1319 19.7287 19.7293C20.1313 19.3267 20.3326 19.1252 20.4586 18.8916C20.6102 18.6106 20.6847 18.2945 20.6749 17.9755C20.6667 17.7102 20.5767 17.44 20.3967 16.8997L20.1369 16.1204C19.9076 15.4328 20.2541 14.6858 20.927 14.4167C21.5852 14.1534 21.9143 14.0217 22.1565 13.8018C22.3703 13.6074 22.5347 13.3648 22.6357 13.094C22.75 12.7874 22.75 12.4295 22.75 11.7134C22.75 11.1087 22.75 10.8063 22.6641 10.5374C22.5881 10.2993 22.4636 10.0795 22.2987 9.89188C22.1121 9.67982 21.8555 9.52576 21.3421 9.21772L21.0063 9.01628C20.2703 8.57464 19.9635 7.66413 20.2823 6.86716C20.4858 6.35827 20.5877 6.10379 20.6137 5.85198C20.6519 5.48202 20.5754 5.10926 20.3945 4.78427C20.2713 4.56307 20.0777 4.36928 19.69 3.98171C19.3253 3.61706 19.143 3.43472 18.9348 3.31496C18.6289 3.13904 18.2782 3.05627 17.9259 3.07679C17.686 3.09077 17.4414 3.17231 16.9522 3.33538L16.2629 3.56513C15.4953 3.82102 14.6612 3.43419 14.3607 2.68287C14.1516 2.16019 14.0471 1.89885 13.8874 1.69492C13.6535 1.39643 13.332 1.17876 12.9681 1.07256Z" stroke="black" stroke-width="2" stroke-linecap="round" stroke-linejoin="round"/>
</svg>
