<svg width="58" height="78" viewBox="0 0 58 78" fill="none" xmlns="http://www.w3.org/2000/svg">
<circle cx="5.37158" cy="38.4966" r="3.79828" transform="rotate(-45 5.37158 38.4966)" fill="#45295D"/>
<circle cx="16.4128" cy="27.4551" r="3.79828" transform="rotate(-45 16.4128 27.4551)" fill="#45295D"/>
<circle cx="27.4546" cy="16.4133" r="3.79828" transform="rotate(-45 27.4546 16.4133)" fill="#45295D"/>
<circle cx="38.4963" cy="5.37183" r="3.79828" transform="rotate(-45 38.4963 5.37183)" fill="#45295D"/>
<circle cx="16.7114" cy="49.8367" r="3.79828" transform="rotate(-45 16.7114 49.8367)" fill="#45295D"/>
<circle cx="27.7529" cy="38.7952" r="3.79828" transform="rotate(-45 27.7529 38.7952)" fill="#45295D"/>
<circle cx="38.7947" cy="27.7534" r="3.79828" transform="rotate(-45 38.7947 27.7534)" fill="#45295D"/>
<circle cx="49.8362" cy="16.7119" r="3.79828" transform="rotate(-45 49.8362 16.7119)" fill="#45295D"/>
<circle cx="28.0513" cy="61.1765" r="3.79828" transform="rotate(-45 28.0513 61.1765)" fill="#45295D"/>
<circle cx="39.093" cy="50.135" r="3.79828" transform="rotate(-45 39.093 50.135)" fill="#45295D"/>
<circle cx="50.1348" cy="39.0933" r="3.79828" transform="rotate(-45 50.1348 39.0933)" fill="#45295D"/>
<circle cx="61.1763" cy="28.0518" r="3.79828" transform="rotate(-45 61.1763 28.0518)" fill="#45295D"/>
<circle cx="39.3914" cy="72.5166" r="3.79828" transform="rotate(-45 39.3914 72.5166)" fill="#45295D"/>
<circle cx="50.4333" cy="61.4751" r="3.79828" transform="rotate(-45 50.4333 61.4751)" fill="#45295D"/>
<circle cx="61.4749" cy="50.4333" r="3.79828" transform="rotate(-45 61.4749 50.4333)" fill="#45295D"/>
</svg>
