<svg width="21" height="21" viewBox="0 0 21 21" fill="none" xmlns="http://www.w3.org/2000/svg">
<path fill-rule="evenodd" clip-rule="evenodd" d="M10.5 15.0938L8.36194 13.6238L1.52447 20.7513C1.86047 20.9068 2.23059 21 2.625 21H18.375C18.7694 21 19.1395 20.9068 19.4755 20.7513L12.6381 13.6238L10.5 15.0938ZM13.7386 12.8671L20.534 19.8647C20.8267 19.4407 21 18.9289 21 18.375V7.42677L13.7386 12.8671ZM20.8425 5.80848L10.5 0L0.157494 5.80848L10.5 13.5555L20.8425 5.80848ZM0 7.21875V18.375C0 18.9289 0.173264 19.4407 0.465952 19.8647L7.26205 12.8671L0 7.21875Z" fill="#AC4AFF"/>
</svg>
