<svg width="32" height="29" viewBox="0 0 32 29" fill="none" xmlns="http://www.w3.org/2000/svg">
<path d="M32 15.928C32 13.7654 30.2669 12.0084 28.118 11.9491C27.9616 11.7045 27.7405 11.5091 27.4798 11.3787C27.8249 6.22713 23.3402 0.836287 17.7544 0.153761C17.0339 0.0286037 16.7085 0.0484784 16.0016 0C7.75675 0.238766 4.20628 7.17024 4.51803 11.3823C4.25946 11.5127 4.0415 11.7065 3.88613 11.9485C1.73509 12.0058 0 13.7638 0 15.928C0 18.0917 1.73509 19.8497 3.8862 19.907C4.17082 20.3523 4.66722 20.6495 5.2344 20.6495C6.11862 20.6495 6.836 19.9326 6.836 19.0479V12.8078C6.836 12.2676 6.56702 11.7921 6.15723 11.5022C6.84849 7.61655 10.3802 3.29499 16.0015 3.20327C16.3415 3.22771 17.0734 3.22194 17.3821 3.30385C20.1786 3.56196 24.8708 6.30273 25.8417 11.5064C25.4351 11.7968 25.1682 12.2702 25.1682 12.8078V19.0479C25.1682 19.7205 25.5831 20.2934 26.1701 20.5312V21.2105C26.1701 22.9841 24.9721 24.5404 23.2578 24.995L18.4206 26.276C18.1599 25.9303 17.7648 25.6927 17.2966 25.6927C16.5052 25.6927 15.8629 26.3349 15.8629 27.1264C15.8629 27.9189 16.5052 28.5601 17.2966 28.5601C18.0255 28.5601 18.6011 28.0107 18.6939 27.3083L23.5311 26.0273C25.7134 25.4486 27.2379 23.6807 27.2379 20.5718C27.605 20.4592 27.9157 20.2236 28.118 19.9065C30.2669 19.847 32 18.09 32 15.928Z" fill="white"/>
<path d="M12.3844 17.9806H10.8266V17.9635C11.7265 17.2158 12.8161 16.3159 12.8161 15.1465C12.8161 12.6096 8.77351 13.2811 9.1978 14.3489C9.31355 14.6601 9.62114 14.7472 9.85789 14.632C10.6108 14.2644 11.519 14.4198 11.519 15.2576C11.4939 16.182 10.1394 17.2164 9.0717 18.1825C8.91109 18.3279 8.86939 19.0479 9.25312 19.0479H12.3844C13.0903 19.0478 13.0903 17.9806 12.3844 17.9806Z" fill="white"/>
<path d="M16.6344 19.0478C17.3289 19.0478 17.2486 18.4101 17.2486 17.7246C18.1828 17.7246 18.1598 16.7512 17.2486 16.7512V13.7685C17.2486 13.6193 17.1276 13.4984 16.9784 13.4984C15.256 13.4984 15.9806 12.9839 13.6772 16.6907C13.4896 16.9957 13.452 17.7246 13.8305 17.7246H16.0191C16.0191 18.4086 15.9389 19.0478 16.6344 19.0478ZM14.7731 16.7512V16.734L15.5156 15.5219C15.7033 15.172 15.8492 14.8477 16.0275 14.4891H16.0619C16.0046 15.3066 16.0192 15.514 16.0192 16.7512H14.7731Z" fill="white"/>
<path d="M18.6689 13.9469V18.3946C18.6689 19.2569 19.9756 19.2606 19.9756 18.3946V16.6402H22.1184V18.3988C22.1184 19.2549 23.4165 19.258 23.4165 18.3988V13.9428C23.4165 13.584 23.1257 13.2937 22.768 13.2937C21.8764 13.2937 22.1184 14.5903 22.1184 15.5048H19.9756V13.9469C19.9755 13.0809 18.6689 13.0845 18.6689 13.9469Z" fill="white"/>
</svg>
