<svg width="31" height="31" viewBox="0 0 31 31" fill="none" xmlns="http://www.w3.org/2000/svg">
<path d="M18.1925 1.38792e-06C20.9676 -0.0013255 23.6592 0.948785 25.8185 2.69187C27.9778 4.43496 29.4742 6.86568 30.0582 9.57852C30.6422 12.2914 30.2784 15.1225 29.0275 17.5997C27.7768 20.0768 25.7144 22.0503 23.1846 23.1909C22.376 24.9786 21.1458 26.5436 19.5996 27.7515C18.0534 28.9594 16.2372 29.7742 14.3068 30.1261C12.3766 30.478 10.3897 30.3564 8.5167 29.7718C6.64367 29.1871 4.94041 28.1569 3.55299 26.7696C2.16557 25.3821 1.13537 23.6788 0.550754 21.8059C-0.0338639 19.9328 -0.155444 17.946 0.19643 16.0156C0.548305 14.0854 1.36313 12.2692 2.57104 10.723C3.77894 9.17673 5.34385 7.94652 7.13166 7.13788C8.09324 5.01017 9.64827 3.205 11.6102 1.93894C13.5721 0.672868 15.8576 -0.000354975 18.1925 1.38792e-06ZM13.6432 10.6151H10.6104V12.1315C9.62484 12.1291 8.67714 12.5106 7.96805 13.1951C7.25904 13.8795 6.84437 14.8132 6.81207 15.7982C6.77969 16.7832 7.13219 17.742 7.7948 18.4716C8.45741 19.2011 9.37811 19.6439 10.3617 19.7061L10.6104 19.7137H13.6432L13.7797 19.7258C13.9545 19.7575 14.1127 19.8495 14.2266 19.9859C14.3404 20.1222 14.4028 20.2943 14.4028 20.4719C14.4028 20.6496 14.3404 20.8216 14.2266 20.958C14.1127 21.0944 13.9545 21.1864 13.7797 21.218L13.6432 21.2302H7.57749V24.263H10.6104V25.7795H13.6432V24.263C14.6287 24.2655 15.5764 23.884 16.2855 23.1995C16.9945 22.515 17.4092 21.5814 17.4415 20.5964C17.4739 19.6114 17.1214 18.6525 16.4587 17.923C15.7961 17.1935 14.8754 16.7507 13.8919 16.6884L13.6432 16.6808H10.6104L10.4739 16.6687C10.299 16.6371 10.1409 16.545 10.027 16.4086C9.91311 16.2723 9.85071 16.1003 9.85071 15.9226C9.85071 15.745 9.91311 15.5729 10.027 15.4366C10.1409 15.3002 10.299 15.2081 10.4739 15.1765L10.6104 15.1644H16.6761V12.1315H13.6432V10.6151ZM18.1925 3.03288C16.9076 3.03138 15.6371 3.30272 14.4649 3.82895C13.2927 4.35519 12.2455 5.12435 11.3929 6.08547C13.1068 5.98145 14.8233 6.24242 16.429 6.8512C18.0345 7.45997 19.4926 8.40267 20.7067 9.61696C21.9208 10.8312 22.8634 12.2894 23.4719 13.8951C24.0805 15.5007 24.3413 17.2173 24.237 18.9312C25.6158 17.7053 26.5894 16.0893 27.0286 14.2974C27.4677 12.5056 27.3518 10.6225 26.6962 8.89801C26.0405 7.17359 24.8761 5.68915 23.3574 4.64167C21.8387 3.59415 20.0375 3.03309 18.1925 3.03288Z" fill="#AC4AFF"/>
</svg>
