<svg width="24" height="24" viewBox="0 0 24 24" fill="none" xmlns="http://www.w3.org/2000/svg">
<path d="M9.33334 1.00004C9.33334 0.587656 9.08027 0.217563 8.69588 0.0680693C8.31155 -0.0814373 7.87486 0.0203229 7.5962 0.324323L0.26287 8.32432C-0.00510345 8.61664 -0.0750102 9.03974 0.0846698 9.40267C0.244363 9.76574 0.603457 10 1.00003 10H22.3333C22.8856 10 23.3333 9.55227 23.3333 9C23.3333 8.44776 22.8856 8.00004 22.3333 8.00004H9.33334V1.00004Z" fill="white"/>
<path d="M14 22.3333V15.3333H1C0.447707 15.3333 0 14.8855 0 14.3333C0 13.781 0.447707 13.3333 1 13.3333H22.3333C22.7298 13.3333 23.089 13.5677 23.2486 13.9306C23.4084 14.2937 23.3385 14.7167 23.0705 15.009L15.7372 23.009C15.4585 23.313 15.0218 23.4147 14.6374 23.2653C14.2532 23.1158 14 22.7457 14 22.3333Z" fill="white"/>
</svg>
